<svg id="visual" viewBox="0 0 900 600" width="900" height="600" xmlns="http://www.w3.org/2000/svg" xmlns:xlink="http://www.w3.org/1999/xlink" version="1.1"><rect x="0" y="0" width="900" height="600" fill="#83cac2"></rect><path d="M0 365L129 365L129 390L257 390L257 380L386 380L386 378L514 378L514 371L643 371L643 391L771 391L771 393L900 393L900 361L900 601L900 601L771 601L771 601L643 601L643 601L514 601L514 601L386 601L386 601L257 601L257 601L129 601L129 601L0 601Z" fill="#fac1be"></path><path d="M0 451L129 451L129 440L257 440L257 408L386 408L386 444L514 444L514 452L643 452L643 460L771 460L771 428L900 428L900 426L900 601L900 601L771 601L771 601L643 601L643 601L514 601L514 601L386 601L386 601L257 601L257 601L129 601L129 601L0 601Z" fill="#efb0ac"></path><path d="M0 477L129 477L129 492L257 492L257 468L386 468L386 504L514 504L514 500L643 500L643 511L771 511L771 490L900 490L900 496L900 601L900 601L771 601L771 601L643 601L643 601L514 601L514 601L386 601L386 601L257 601L257 601L129 601L129 601L0 601Z" fill="#e49f9a"></path><path d="M0 548L129 548L129 556L257 556L257 530L386 530L386 560L514 560L514 557L643 557L643 559L771 559L771 561L900 561L900 530L900 601L900 601L771 601L771 601L643 601L643 601L514 601L514 601L386 601L386 601L257 601L257 601L129 601L129 601L0 601Z" fill="#d98e89"></path></svg>